<?xml version="1.0" encoding="UTF-8" standalone="no"?>
<!-- Generator: Adobe Illustrator 16.0.4, SVG Export Plug-In . SVG Version: 6.00 Build 0)  -->

<svg
   xmlns:dc="http://purl.org/dc/elements/1.1/"
   xmlns:cc="http://creativecommons.org/ns#"
   xmlns:rdf="http://www.w3.org/1999/02/22-rdf-syntax-ns#"
   xmlns:svg="http://www.w3.org/2000/svg"
   xmlns="http://www.w3.org/2000/svg"
   xmlns:sodipodi="http://sodipodi.sourceforge.net/DTD/sodipodi-0.dtd"
   xmlns:inkscape="http://www.inkscape.org/namespaces/inkscape"
   version="1.1"
   id="Layer_1"
   x="0px"
   y="0px"
   width="629.62598"
   height="171.039"
   viewBox="0 0 629.62597 171.03899"
   enable-background="new 0 0 841.89 595.28"
   xml:space="preserve"
   inkscape:version="0.91 r"
   sodipodi:docname="good_hq_logo.svg"><metadata
     id="metadata3514"><rdf:RDF><cc:Work
         rdf:about=""><dc:format>image/svg+xml</dc:format><dc:type
           rdf:resource="http://purl.org/dc/dcmitype/StillImage" /><dc:title></dc:title></cc:Work></rdf:RDF></metadata><defs
     id="defs3512" /><sodipodi:namedview
     pagecolor="#ffffff"
     bordercolor="#666666"
     borderopacity="1"
     objecttolerance="10"
     gridtolerance="10"
     guidetolerance="10"
     inkscape:pageopacity="0"
     inkscape:pageshadow="2"
     inkscape:window-width="1920"
     inkscape:window-height="1030"
     id="namedview3510"
     showgrid="false"
     fit-margin-top="0"
     fit-margin-left="0"
     fit-margin-right="0"
     fit-margin-bottom="0"
     inkscape:zoom="0.32664599"
     inkscape:cx="314.81401"
     inkscape:cy="86.336985"
     inkscape:window-x="0"
     inkscape:window-y="11"
     inkscape:window-maximized="1"
     inkscape:current-layer="Layer_1" /><g
     id="g3506"
     transform="translate(-106.131,-212.938)"><path
       d="m 691.078,260.739 0,12.48 12.113,0 c -0.823,1.972 -2.004,3.805 -3.582,5.379 -7.159,7.164 -19.445,6.619 -27.975,-1.91 -8.19,-8.191 -8.457,-20.201 -1.298,-27.365 7.169,-7.166 19.178,-6.892 27.365,1.299 3.028,3.03 5.036,6.537 6.06,10.117 l -12.683,0 z m -532.027,57.456 21.543,0 0,18.896 c -4.076,0.947 -8.532,1.41 -13.371,1.41 -8.863,0 -15.642,-2.963 -20.354,-8.875 -4.699,-5.918 -7.055,-14.515 -7.055,-25.8 0,-11.5 2.598,-20.347 7.801,-26.539 5.198,-6.191 12.558,-9.286 22.08,-9.286 10.403,0 19.949,2.147 28.646,6.439 l 10.322,-25.592 c -5.009,-2.204 -10.884,-4.022 -17.623,-5.448 -6.747,-1.435 -13.913,-2.145 -21.507,-2.145 -20.03,0 -35.608,5.419 -46.726,16.256 -11.116,10.846 -16.676,26.009 -16.676,45.49 0,19.978 5.073,35.364 15.232,46.143 10.152,10.79 24.53,16.179 43.132,16.179 16.948,0 32.498,-2.418 46.644,-7.264 l 0,-65.049 -52.089,0 0,25.185 z m 161.235,-61.342 c 9.909,10.519 14.86,25.952 14.86,46.317 0,20.305 -4.982,35.736 -14.945,46.304 -9.963,10.569 -24.543,15.851 -43.753,15.851 -18.93,0 -33.449,-5.307 -43.544,-15.925 -10.101,-10.622 -15.148,-26.085 -15.148,-46.396 0,-20.088 5.02,-35.431 15.062,-46.024 10.044,-10.598 24.642,-15.888 43.793,-15.888 19.213,-0.001 33.771,5.251 43.675,15.761 z m -19.483,46.317 c 0,-12.052 -2.025,-20.958 -6.07,-26.709 -4.044,-5.748 -10.084,-8.626 -18.122,-8.626 -16.345,0 -24.515,11.778 -24.515,35.335 0,23.334 8.117,35.004 24.352,35.004 8.251,0 14.38,-2.834 18.372,-8.51 3.984,-5.662 5.983,-14.5 5.983,-26.494 z m 142.373,-46.317 c 9.909,10.519 14.86,25.952 14.86,46.317 0,20.305 -4.982,35.736 -14.937,46.304 -9.965,10.569 -24.55,15.851 -43.75,15.851 -18.936,0 -33.451,-5.307 -43.544,-15.925 -10.101,-10.622 -15.153,-26.085 -15.153,-46.396 0,-20.088 5.022,-35.431 15.064,-46.024 10.042,-10.598 24.648,-15.888 43.796,-15.888 19.2,-0.001 33.757,5.251 43.664,15.761 z m -19.48,46.317 c 0,-12.052 -2.02,-20.958 -6.072,-26.709 -4.038,-5.748 -10.08,-8.626 -18.112,-8.626 -16.345,0 -24.52,11.778 -24.52,35.335 0,23.334 8.114,35.004 24.357,35.004 8.253,0 14.371,-2.834 18.362,-8.51 3.994,-5.662 5.985,-14.5 5.985,-26.494 z m 144.201,10.211 c -1.901,14.113 -7.134,25.455 -15.774,33.953 -11.089,10.892 -26.675,16.34 -46.771,16.34 l -39.037,0 0,-120.688 41.768,0 c 17.845,0 31.903,4.257 42.258,12.673 -4.468,19.618 0.86,41.03 16.105,56.265 l 1.451,1.457 z m -32.991,-11.449 c 0,-11.066 -2.184,-19.261 -6.557,-24.607 -4.378,-5.331 -11.023,-8 -19.937,-8 l -9.499,0 0,67.601 7.263,0 c 9.911,0 17.174,-2.873 21.794,-8.623 4.625,-5.748 6.936,-14.537 6.936,-26.371 z m 200.851,-28.713 c -0.963,13.521 -6.601,26.081 -16.229,35.706 l -75.045,75.052 -8.14,-8.139 -0.438,-0.441 -66.461,-66.465 c -21.932,-21.93 -21.916,-57.632 0.008,-79.558 10.595,-10.595 24.729,-16.437 39.805,-16.434 12.989,-0.002 25.29,4.334 35.227,12.357 9.946,-8.002 22.259,-12.359 35.263,-12.359 15.057,0.002 29.19,5.824 39.77,16.426 8.597,8.572 13.991,19.516 15.753,31.373 l -14.202,0 c -0.668,-8.231 -4.271,-16.268 -10.74,-22.739 -13.992,-13.992 -35.688,-14.129 -50.568,0.748 -14.875,14.878 -14.735,36.574 -0.745,50.563 14.329,14.33 36.298,14.74 51.175,-0.14 4.751,-4.75 7.925,-10.23 9.604,-15.951 l 15.963,0 z m -53.862,42.094 -8.827,-8.818 -4.447,4.442 -30.694,-30.687 4.452,-4.449 -8.821,-8.825 -20.83,20.825 8.821,8.831 4.452,-4.452 10.935,10.936 -14.797,14.797 -10.936,-10.937 4.451,-4.452 -8.821,-8.824 -20.829,20.832 8.824,8.822 4.45,-4.447 30.683,30.689 -4.444,4.449 8.823,8.822 20.827,-20.828 -8.824,-8.824 -4.452,4.451 -10.329,-10.33 14.799,-14.801 10.336,10.333 -4.455,4.448 8.822,8.824 20.831,-20.827 z"
       id="path3508"
       inkscape:connector-curvature="0"
       style="fill:#ffffff" /></g></svg>